# xmcd
#
# Track frame offsets:
#	150
#	14851
#	32212
#	48140
#	62052
#	80795
#	98751
#	120839
#	141497
#	157286
#
# Disc length: 2311 seconds
#
# Revision: 1
# Processed by: cddbd v1.5.2PL0 Copyright (c) Steve Scherf et al.
# Submitted via: audiograbber 1.83.01
#
DISCID=8b09050a
DTITLE=The Great Unknown - Tonight, Let's Pretend
DYEAR=2009
DGENRE=Alternative Rock
TTITLE0=I Can See Forever Up Here
TTITLE1=Self Portraits
TTITLE2=I'm Not Listening
TTITLE3=Young Military Wives
TTITLE4=We've Got Secrets
TTITLE5=Shrapnel
TTITLE6=Votra Norta Dom
TTITLE7=Over and Over
TTITLE8=Tonight, Let's Pretend
TTITLE9=The Weasel and The Worm
EXTD=
EXTT0=
EXTT1=
EXTT2=
EXTT3=
EXTT4=
EXTT5=
EXTT6=
EXTT7=
EXTT8=
EXTT9=
PLAYORDER=
